<mxfile><diagram><mxGraphModel><root><mxCell><id>0</id></mxCell><mxCell><id>1</id><parent>0</parent></mxCell><mxCell><mxGeometry><width>825</width><height>1100</height><as>geometry</as></mxGeometry><id>BFmJljl-8hoy7SMpkLxM-120</id><value></value><style>group</style><parent>1</parent><vertex>1</vertex><connectable>0</connectable></mxCell><mxCell><mxGeometry><y>670</y><width>200</width><height>135</height><as>geometry</as></mxGeometry><id>34</id><value>&lt;p style=&quot;margin: 0px ; margin-top: 4px ; text-align: center ; text-decoration: underline&quot;&gt;&lt;strong&gt;Thing&lt;/strong&gt;&lt;/p&gt;&lt;hr&gt;COLUMNS.Things</value><style>verticalAlign=top;align=left;overflow=fill;fontSize=12;fontFamily=Helvetica;html=1;strokeColor=#003366;shadow=1;fillColor=#D4E1F5;fontColor=#003366</style><parent>BFmJljl-8hoy7SMpkLxM-120</parent><vertex>1</vertex></mxCell><mxCell><mxGeometry><x>570</x><y>240</y><width>235</width><height>230</height><as>geometry</as></mxGeometry><id>22</id><value>&lt;p style=&quot;margin: 0px; margin-top: 4px; text-align: center; text-decoration: underline;&quot;&gt;&lt;strong&gt;Observation&lt;/strong&gt;&lt;/p&gt;&lt;hr&gt;COLUMNS.Observations</value><style>verticalAlign=top;align=left;overflow=fill;fontSize=12;fontFamily=Helvetica;html=1;strokeColor=#003366;shadow=1;fillColor=#D4E1F5;fontColor=#003366</style><parent>BFmJljl-8hoy7SMpkLxM-120</parent><vertex>1</vertex></mxCell><mxCell><mxGeometry><x>230</x><width>165</width><height>155</height><as>geometry</as></mxGeometry><id>23</id><value>&lt;p style=&quot;margin: 0px; margin-top: 4px; text-align: center; text-decoration: underline;&quot;&gt;&lt;strong&gt;ObservedProperty&lt;/strong&gt;&lt;/p&gt;&lt;hr&gt;COLUMNS.ObservedProperties</value><style>verticalAlign=top;align=left;overflow=fill;fontSize=12;fontFamily=Helvetica;html=1;strokeColor=#003366;shadow=1;fillColor=#D4E1F5;fontColor=#003366</style><parent>BFmJljl-8hoy7SMpkLxM-120</parent><vertex>1</vertex></mxCell><mxCell><mxGeometry><width>165</width><height>190</height><as>geometry</as></mxGeometry><id>24</id><value>&lt;p style=&quot;margin: 0px; margin-top: 4px; text-align: center; text-decoration: underline;&quot;&gt;&lt;strong&gt;Sensor&lt;/strong&gt;&lt;/p&gt;&lt;hr&gt;COLUMNS.Sensors</value><style>verticalAlign=top;align=left;overflow=fill;fontSize=12;fontFamily=Helvetica;html=1;strokeColor=#003366;shadow=1;fillColor=#D4E1F5;fontColor=#003366</style><parent>BFmJljl-8hoy7SMpkLxM-120</parent><vertex>1</vertex></mxCell><mxCell><mxGeometry><x>580</x><width>220</width><height>130</height><as>geometry</as></mxGeometry><id>27</id><value>&lt;p style=&quot;margin: 0px; margin-top: 4px; text-align: center; text-decoration: underline;&quot;&gt;&lt;strong&gt;FeatureOfInterest&lt;/strong&gt;&lt;/p&gt;&lt;hr&gt;COLUMNS.FeaturesOfInterest</value><style>verticalAlign=top;align=left;overflow=fill;fontSize=12;fontFamily=Helvetica;html=1;strokeColor=#003366;shadow=1;fillColor=#D4E1F5;fontColor=#003366</style><parent>BFmJljl-8hoy7SMpkLxM-120</parent><vertex>1</vertex></mxCell><mxCell><mxGeometry><y>870</y><width>200</width><height>130</height><as>geometry</as></mxGeometry><id>28</id><value>&lt;p style=&quot;margin: 0px; margin-top: 4px; text-align: center; text-decoration: underline;&quot;&gt;&lt;strong&gt;Location&lt;/strong&gt;&lt;/p&gt;&lt;hr&gt;COLUMNS.Locations</value><style>verticalAlign=top;align=left;overflow=fill;fontSize=12;fontFamily=Helvetica;html=1;strokeColor=#003366;shadow=1;fillColor=#D4E1F5;fontColor=#003366</style><parent>BFmJljl-8hoy7SMpkLxM-120</parent><vertex>1</vertex></mxCell><mxCell><mxGeometry><x>180</x><y>230</y><width>265.8</width><height>420</height><as>geometry</as></mxGeometry><id>29</id><value>&lt;p style=&quot;margin: 0px; margin-top: 4px; text-align: center; text-decoration: underline;&quot;&gt;&lt;strong&gt;Datastream&lt;/strong&gt;&lt;/p&gt;&lt;hr&gt;&lt;div&gt;COLUMNS.Datastreams&lt;/div&gt;&lt;div&gt;&lt;br&gt;&lt;/div&gt;&lt;div&gt;&lt;br&gt;&lt;/div&gt;&lt;div&gt;&lt;p style=&quot;margin: 0px; margin-top: 4px; text-align: center; text-decoration: underline;&quot;&gt;&lt;strong&gt;MultiDatastream&lt;/strong&gt;&lt;/p&gt;&lt;hr&gt;COLUMNS.MultiDatastreams&lt;/div&gt;</value><style>verticalAlign=top;align=left;overflow=fill;fontSize=12;fontFamily=Helvetica;html=1;strokeColor=#003366;shadow=1;fillColor=#D4E1F5;fontColor=#003366</style><parent>BFmJljl-8hoy7SMpkLxM-120</parent><vertex>1</vertex></mxCell><mxCell><mxGeometry><x>260</x><y>785</y><width>165</width><height>75</height><as>geometry</as></mxGeometry><id>33</id><value>&lt;p style=&quot;margin: 0px; margin-top: 4px; text-align: center; text-decoration: underline;&quot;&gt;&lt;strong&gt;HistoricalLocation&lt;/strong&gt;&lt;/p&gt;&lt;hr&gt;&lt;p style=&quot;margin: 0px; margin-left: 8px;&quot;&gt;COLUMNS.HistoricalLocations&lt;/p&gt;</value><style>verticalAlign=top;align=left;overflow=fill;fontSize=12;fontFamily=Helvetica;html=1;strokeColor=#003366;shadow=1;fillColor=#D4E1F5;fontColor=#003366</style><parent>BFmJljl-8hoy7SMpkLxM-120</parent><vertex>1</vertex></mxCell><mxCell><mxGeometry><mxPoint><x>385</x><y>598</y><as>sourcePoint</as></mxPoint><mxPoint><x>547</x><y>598</y><as>targetPoint</as></mxPoint><x>395</x><y>616</y><as>geometry</as></mxGeometry><id>51</id><value></value><style>endArrow=none;endSize=12;startArrow=none;startSize=14;startFill=0;edgeStyle=orthogonalEdgeStyle;endFill=0;</style><parent>BFmJljl-8hoy7SMpkLxM-120</parent><source>23</source><target>29</target><edge>1</edge></mxCell><mxCell><mxGeometry><mxPoint><x>-25</x><as>offset</as></mxPoint><x>-1</x><relative>1</relative><as>geometry</as></mxGeometry><id>52</id><value>1</value><style>resizable=0;align=left;verticalAlign=top;labelBackgroundColor=#ffffff;fontSize=16;strokeColor=#003366;shadow=1;fillColor=#D4E1F5;fontColor=#003366</style><parent>51</parent><connectable>0</connectable><vertex>1</vertex></mxCell><mxCell><mxGeometry><mxPoint><x>40</x><y>-28</y><as>offset</as></mxPoint><x>1</x><relative>1</relative><as>geometry</as></mxGeometry><id>53</id><value>0..*&amp;#xa;</value><style>resizable=0;align=right;verticalAlign=top;labelBackgroundColor=#ffffff;fontSize=16;strokeColor=#003366;shadow=1;fillColor=#D4E1F5;fontColor=#003366</style><parent>51</parent><connectable>0</connectable><vertex>1</vertex></mxCell><mxCell><mxGeometry><mxPoint><x>466</x><y>908</y><as>sourcePoint</as></mxPoint><mxPoint><x>985</x><y>1337</y><as>targetPoint</as></mxPoint><x>476</x><y>926</y><as>geometry</as></mxGeometry><id>66</id><value></value><style>endArrow=none;endSize=12;startArrow=none;startSize=14;startFill=0;edgeStyle=orthogonalEdgeStyle;entryX=1;entryY=0.5;entryDx=0;entryDy=0;endFill=0;exitX=0.5;exitY=1;exitDx=0;exitDy=0;rounded=0;curved=0;</style><parent>BFmJljl-8hoy7SMpkLxM-120</parent><source>33</source><target>28</target><edge>1</edge></mxCell><mxCell><mxGeometry><mxPoint><x>10</x><as>offset</as></mxPoint><x>-1</x><relative>1</relative><as>geometry</as></mxGeometry><id>67</id><value>0..*</value><style>resizable=0;align=left;verticalAlign=top;labelBackgroundColor=#ffffff;fontSize=16;strokeColor=#003366;shadow=1;fillColor=#D4E1F5;fontColor=#003366</style><parent>66</parent><connectable>0</connectable><vertex>1</vertex></mxCell><mxCell><mxGeometry><mxPoint><x>30</x><y>5</y><as>offset</as></mxPoint><x>1</x><relative>1</relative><as>geometry</as></mxGeometry><id>68</id><value>1..*</value><style>resizable=0;align=right;verticalAlign=top;labelBackgroundColor=#ffffff;fontSize=16;strokeColor=#003366;shadow=1;fillColor=#D4E1F5;fontColor=#003366</style><parent>66</parent><connectable>0</connectable><vertex>1</vertex></mxCell><mxCell><mxGeometry><mxPoint><x>415</x><y>1425</y><as>sourcePoint</as></mxPoint><mxPoint><x>180</x><y>600</y><as>targetPoint</as></mxPoint><Array><mxPoint><x>100</x><y>600</y></mxPoint><mxPoint><x>180</x><y>600</y></mxPoint><as>points</as></Array><x>425</x><y>1443</y><as>geometry</as></mxGeometry><id>72</id><value></value><style>endArrow=none;endSize=12;startArrow=none;startSize=14;startFill=0;edgeStyle=orthogonalEdgeStyle;rounded=0;endFill=0;exitX=0.5;exitY=0;exitDx=0;exitDy=0;</style><parent>BFmJljl-8hoy7SMpkLxM-120</parent><source>34</source><edge>1</edge></mxCell><mxCell><mxGeometry><mxPoint><x>50</x><y>-100</y><as>offset</as></mxPoint><x>-1</x><relative>1</relative><as>geometry</as></mxGeometry><id>73</id><value>0..*&amp;#xa;</value><style>resizable=0;align=left;verticalAlign=top;labelBackgroundColor=#ffffff;fontSize=16;strokeColor=#003366;shadow=1;fillColor=#D4E1F5;fontColor=#003366</style><parent>72</parent><connectable>0</connectable><vertex>1</vertex></mxCell><mxCell><mxGeometry><mxPoint><x>-90</x><y>40</y><as>offset</as></mxPoint><x>1</x><relative>1</relative><as>geometry</as></mxGeometry><id>74</id><value>1</value><style>resizable=0;align=right;verticalAlign=top;labelBackgroundColor=#ffffff;fontSize=16;strokeColor=#003366;shadow=1;fillColor=#D4E1F5;fontColor=#003366</style><parent>72</parent><connectable>0</connectable><vertex>1</vertex></mxCell><mxCell><mxGeometry><mxPoint><x>1400</x><y>211</y><as>sourcePoint</as></mxPoint><mxPoint><x>1563</x><y>211</y><as>targetPoint</as></mxPoint><x>1411</x><y>228</y><as>geometry</as></mxGeometry><id>84</id><value></value><style>endArrow=none;endSize=12;startArrow=none;startSize=14;startFill=0;edgeStyle=orthogonalEdgeStyle;endFill=0;</style><parent>BFmJljl-8hoy7SMpkLxM-120</parent><source>27</source><target>22</target><edge>1</edge></mxCell><mxCell><mxGeometry><mxPoint><x>-36</x><y>2</y><as>offset</as></mxPoint><x>-1</x><relative>1</relative><as>geometry</as></mxGeometry><id>85</id><value>0..*</value><style>resizable=0;align=left;verticalAlign=top;labelBackgroundColor=#ffffff;fontSize=16;strokeColor=#003366;shadow=1;fillColor=#D4E1F5;fontColor=#003366</style><parent>84</parent><connectable>0</connectable><vertex>1</vertex></mxCell><mxCell><mxGeometry><mxPoint><x>24</x><y>-26</y><as>offset</as></mxPoint><x>1</x><relative>1</relative><as>geometry</as></mxGeometry><id>86</id><value>1</value><style>resizable=0;align=right;verticalAlign=top;labelBackgroundColor=#ffffff;fontSize=16;strokeColor=#003366;shadow=1;fillColor=#D4E1F5;fontColor=#003366</style><parent>84</parent><connectable>0</connectable><vertex>1</vertex></mxCell><mxCell><mxGeometry><mxPoint><x>170</x><y>310</y><as>sourcePoint</as></mxPoint><mxPoint><x>527</x><y>616</y><as>targetPoint</as></mxPoint><Array><as>points</as></Array><x>375</x><y>633</y><as>geometry</as></mxGeometry><id>99</id><value></value><style>endArrow=none;endSize=12;startArrow=none;startSize=14;startFill=0;edgeStyle=orthogonalEdgeStyle;endFill=0;exitX=0.008;exitY=0.198;exitDx=0;exitDy=0;exitPerimeter=0;</style><parent>BFmJljl-8hoy7SMpkLxM-120</parent><source>29</source><target>24</target><edge>1</edge></mxCell><mxCell><mxGeometry><mxPoint><x>-26</x><y>-28</y><as>offset</as></mxPoint><x>-1</x><relative>1</relative><as>geometry</as></mxGeometry><id>100</id><value>0..*</value><style>resizable=0;align=left;verticalAlign=top;labelBackgroundColor=#ffffff;fontSize=16;strokeColor=#003366;shadow=1;fillColor=#D4E1F5;fontColor=#003366</style><parent>99</parent><connectable>0</connectable><vertex>1</vertex></mxCell><mxCell><mxGeometry><mxPoint><x>-10</x><as>offset</as></mxPoint><x>1</x><relative>1</relative><as>geometry</as></mxGeometry><id>101</id><value>1</value><style>resizable=0;align=right;verticalAlign=top;labelBackgroundColor=#ffffff;fontSize=16;strokeColor=#003366;shadow=1;fillColor=#D4E1F5;fontColor=#003366</style><parent>99</parent><connectable>0</connectable><vertex>1</vertex></mxCell><mxCell><mxGeometry><mxPoint><x>182</x><y>1654</y><as>sourcePoint</as></mxPoint><mxPoint><x>345</x><y>1654</y><as>targetPoint</as></mxPoint><x>192</x><y>1672</y><as>geometry</as></mxGeometry><id>107</id><value></value><style>endArrow=none;edgeStyle=orthogonalEdgeStyle;</style><parent>BFmJljl-8hoy7SMpkLxM-120</parent><source>28</source><target>34</target><edge>1</edge></mxCell><mxCell><mxGeometry><mxPoint><x>19</x><y>-10</y><as>offset</as></mxPoint><x>-1</x><relative>1</relative><as>geometry</as></mxGeometry><id>108</id><value>0..*</value><style>resizable=0;align=left;verticalAlign=bottom;labelBackgroundColor=#ffffff;fontSize=16;strokeColor=#003366;shadow=1;fillColor=#D4E1F5;fontColor=#003366</style><parent>107</parent><connectable>0</connectable><vertex>1</vertex></mxCell><mxCell><mxGeometry><mxPoint><x>39</x><y>24</y><as>offset</as></mxPoint><x>1</x><relative>1</relative><as>geometry</as></mxGeometry><id>109</id><value>0..*</value><style>resizable=0;align=right;verticalAlign=bottom;labelBackgroundColor=#ffffff;fontSize=16;strokeColor=#003366;shadow=1;fillColor=#D4E1F5;fontColor=#003366</style><parent>107</parent><connectable>0</connectable><vertex>1</vertex></mxCell><mxCell><mxGeometry><x>219</x><y>720</y><as>geometry</as></mxGeometry><id>110</id><value>1</value><style>resizable=0;align=right;verticalAlign=top;labelBackgroundColor=#ffffff;fontSize=16;strokeColor=#003366;shadow=1;fillColor=#D4E1F5;fontColor=#003366</style><parent>BFmJljl-8hoy7SMpkLxM-120</parent><connectable>0</connectable><vertex>1</vertex></mxCell><mxCell><mxGeometry><mxPoint><x>-23</x><y>-144</y><as>offset</as></mxPoint><x>389</x><y>910</y><as>geometry</as></mxGeometry><id>111</id><value>0..*</value><style>resizable=0;align=right;verticalAlign=bottom;labelBackgroundColor=#ffffff;fontSize=16;strokeColor=#003366;shadow=1;fillColor=#D4E1F5;fontColor=#003366</style><parent>BFmJljl-8hoy7SMpkLxM-120</parent><connectable>0</connectable><vertex>1</vertex></mxCell><mxCell><mxGeometry><x>540</x><y>355</y><as>geometry</as></mxGeometry><id>112</id><value>0..*</value><style>resizable=0;align=left;verticalAlign=top;labelBackgroundColor=#ffffff;fontSize=16;strokeColor=#003366;shadow=1;fillColor=#D4E1F5;fontColor=#003366</style><parent>BFmJljl-8hoy7SMpkLxM-120</parent><connectable>0</connectable><vertex>1</vertex></mxCell><mxCell><mxGeometry><x>457</x><y>355</y><as>geometry</as></mxGeometry><id>113</id><value>1</value><style>resizable=0;align=left;verticalAlign=top;labelBackgroundColor=#ffffff;fontSize=16;strokeColor=#003366;shadow=1;fillColor=#D4E1F5;fontColor=#003366</style><parent>BFmJljl-8hoy7SMpkLxM-120</parent><connectable>0</connectable><vertex>1</vertex></mxCell><mxCell><mxGeometry><Array><mxPoint><x>507</x><y>580</y></mxPoint><mxPoint><x>507</x><y>500</y></mxPoint><as>points</as></Array><relative>1</relative><as>geometry</as></mxGeometry><id>114</id><style>edgeStyle=orthogonalEdgeStyle;rounded=0;orthogonalLoop=1;jettySize=auto;html=1;endArrow=none;endFill=0;</style><parent>BFmJljl-8hoy7SMpkLxM-120</parent><source>115</source><target>29</target><edge>1</edge></mxCell><mxCell><mxGeometry><x>568</x><y>510</y><width>233</width><height>140</height><as>geometry</as></mxGeometry><id>115</id><value>&lt;p style=&quot;margin: 0px; margin-top: 4px; text-align: center; text-decoration: underline;&quot;&gt;&lt;strong&gt;Lora&lt;/strong&gt;&lt;/p&gt;&lt;hr&gt;COLUMNS.Loras</value><style>verticalAlign=top;align=left;overflow=fill;fontSize=12;fontFamily=Helvetica;html=1;strokeColor=#d79b00;shadow=1;fillColor=#ffe6cc;</style><parent>BFmJljl-8hoy7SMpkLxM-120</parent><vertex>1</vertex></mxCell><mxCell><mxGeometry><relative>1</relative><as>geometry</as></mxGeometry><id>116</id><style>edgeStyle=orthogonalEdgeStyle;rounded=0;orthogonalLoop=1;jettySize=auto;html=1;entryX=0.5;entryY=1;entryDx=0;entryDy=0;endArrow=none;endFill=0;</style><parent>BFmJljl-8hoy7SMpkLxM-120</parent><source>117</source><target>115</target><edge>1</edge></mxCell><mxCell><mxGeometry><x>568.77</x><y>730</y><width>233.61</width><height>145</height><as>geometry</as></mxGeometry><id>117</id><value>&lt;p style=&quot;margin: 0px; margin-top: 4px; text-align: center; text-decoration: underline;&quot;&gt;&lt;strong&gt;Decoder&lt;/strong&gt;&lt;/p&gt;&lt;hr&gt;&lt;div&gt;COLUMNS.Decoders&lt;/div&gt;&lt;div&gt;&lt;br&gt;&lt;/div&gt;</value><style>verticalAlign=top;align=left;overflow=fill;fontSize=12;fontFamily=Helvetica;html=1;strokeColor=#d79b00;shadow=1;fillColor=#ffe6cc;</style><parent>BFmJljl-8hoy7SMpkLxM-120</parent><vertex>1</vertex></mxCell><mxCell><mxGeometry><x>457.05</x><y>510</y><as>geometry</as></mxGeometry><id>118</id><value>0..*&amp;#xa;</value><style>resizable=0;align=left;verticalAlign=top;labelBackgroundColor=#ffffff;fontSize=16;strokeColor=#003366;shadow=1;fillColor=#D4E1F5;fontColor=#003366</style><parent>BFmJljl-8hoy7SMpkLxM-120</parent><connectable>0</connectable><vertex>1</vertex></mxCell><mxCell><mxGeometry><x>560</x><y>545</y><as>geometry</as></mxGeometry><id>119</id><value>1</value><style>resizable=0;align=right;verticalAlign=top;labelBackgroundColor=#ffffff;fontSize=16;strokeColor=#003366;shadow=1;fillColor=#D4E1F5;fontColor=#003366</style><parent>BFmJljl-8hoy7SMpkLxM-120</parent><connectable>0</connectable><vertex>1</vertex></mxCell><mxCell><mxGeometry><x>710</x><y>700</y><as>geometry</as></mxGeometry><id>120</id><value>1</value><style>resizable=0;align=right;verticalAlign=top;labelBackgroundColor=#ffffff;fontSize=16;strokeColor=#003366;shadow=1;fillColor=#D4E1F5;fontColor=#003366</style><parent>BFmJljl-8hoy7SMpkLxM-120</parent><connectable>0</connectable><vertex>1</vertex></mxCell><mxCell><mxGeometry><x>650</x><y>650</y><as>geometry</as></mxGeometry><id>121</id><value>0..*&amp;#xa;</value><style>resizable=0;align=left;verticalAlign=top;labelBackgroundColor=#ffffff;fontSize=16;strokeColor=#003366;shadow=1;fillColor=#D4E1F5;fontColor=#003366</style><parent>BFmJljl-8hoy7SMpkLxM-120</parent><connectable>0</connectable><vertex>1</vertex></mxCell><mxCell><mxGeometry><Array><mxPoint><x>340</x><y>715</y></mxPoint><as>points</as></Array><relative>1</relative><as>geometry</as></mxGeometry><id>122</id><style>edgeStyle=orthogonalEdgeStyle;rounded=0;orthogonalLoop=1;jettySize=auto;html=1;entryX=0.996;entryY=0.341;entryDx=0;entryDy=0;entryPerimeter=0;</style><edge>1</edge><parent>BFmJljl-8hoy7SMpkLxM-120</parent><source>33</source><target>34</target></mxCell><mxCell><mxGeometry><relative>1</relative><as>geometry</as></mxGeometry><id>123</id><style>edgeStyle=orthogonalEdgeStyle;rounded=0;orthogonalLoop=1;jettySize=auto;html=1;entryX=0.997;entryY=0.298;entryDx=0;entryDy=0;entryPerimeter=0;</style><edge>1</edge><parent>BFmJljl-8hoy7SMpkLxM-120</parent><source>22</source><target>29</target></mxCell><mxCell><mxGeometry><x>11</x><y>355</y><width>140</width><height>190</height><as>geometry</as></mxGeometry><id>124</id><value>&lt;p style=&quot;margin: 0px; margin-top: 4px; text-align: center; text-decoration: underline;&quot;&gt;&lt;strong&gt;Logs&lt;/strong&gt;&lt;/p&gt;&lt;hr&gt;COLUMNS.Logs</value><style>verticalAlign=top;align=left;overflow=fill;fontSize=12;fontFamily=Helvetica;html=1;strokeColor=#b85450;shadow=1;fillColor=#f8cecc;</style><vertex>1</vertex><parent>BFmJljl-8hoy7SMpkLxM-120</parent></mxCell></root><dx>3406</dx><dy>1142</dy><grid>1</grid><gridSize>10</gridSize><guides>1</guides><tooltips>1</tooltips><connect>1</connect><arrows>1</arrows><fold>1</fold><page>1</page><pageScale>1</pageScale><pageWidth>826</pageWidth><pageHeight>1169</pageHeight><background>none</background><math>0</math><shadow>0</shadow></mxGraphModel><name>Page-1</name><id>efa7a0a1-bf9b-a30e-e6df-94a7791c09e9</id></diagram><host>app.diagrams.net</host><modified>2024-01-11T08:38:38.201Z</modified><agent>Mozilla/5.0 (Windows NT 10.0; Win64; x64; rv:121.0) Gecko/20100101 Firefox/121.0</agent><etag>DG284R94I0xKvi-jLClF</etag><version>22.1.18</version><type>github</type></mxfile>
